<svg width="25" height="21" viewBox="0 0 25 21" fill="none" xmlns="http://www.w3.org/2000/svg">
<path d="M14.9311 1.23068L23.9311 10.2307C24.0241 10.3235 24.0979 10.4338 24.1482 10.5552C24.1985 10.6766 24.2244 10.8068 24.2244 10.9382C24.2244 11.0696 24.1985 11.1997 24.1482 11.3211C24.0979 11.4425 24.0241 11.5528 23.9311 11.6457L14.9311 20.6457C14.7913 20.7857 14.613 20.8811 14.4189 20.9197C14.2249 20.9584 14.0237 20.9386 13.8408 20.8628C13.658 20.787 13.5018 20.6588 13.3919 20.4942C13.282 20.3296 13.2235 20.1361 13.2236 19.9382V11.9382H1.22363C0.958416 11.9382 0.704063 11.8328 0.516526 11.6453C0.32899 11.4577 0.223633 11.2034 0.223633 10.9382C0.223633 10.673 0.32899 10.4186 0.516526 10.2311C0.704063 10.0435 0.958416 9.93818 1.22363 9.93818H13.2236L13.2236 1.93818C13.2235 1.74028 13.282 1.54679 13.3919 1.38219C13.5018 1.2176 13.658 1.08931 13.8408 1.01356C14.0237 0.937803 14.2249 0.917997 14.4189 0.956648C14.613 0.995298 14.7913 1.09067 14.9311 1.23068Z" fill="white"/>
</svg>
